<svg xmlns="http://www.w3.org/2000/svg" viewBox="0 0 1030 250"><defs><style>.cls-1{fill:#40403f;}.cls-2{fill:#6b6b6b;}</style></defs><g id="Artwork"><path class="cls-1" d="M184.48,191.6a53,53,0,0,1-21.12-20.28,57.31,57.31,0,0,1-7.59-29.44,56.75,56.75,0,0,1,7.59-29.33,53.37,53.37,0,0,1,21.12-20.18,67.43,67.43,0,0,1,61,0,53.5,53.5,0,0,1,21.12,20.18,56.75,56.75,0,0,1,7.59,29.33,57.31,57.31,0,0,1-7.59,29.44,53.14,53.14,0,0,1-21.12,20.28,67.34,67.34,0,0,1-61,0Zm54.09-24.54q9.36-9.57,9.36-25.18t-9.36-25.17q-9.36-9.57-23.72-9.57t-23.61,9.57Q182,126.28,182,141.88t9.26,25.18q9.25,9.57,23.61,9.56T238.57,167.06Z"/><path class="cls-1" d="M406.66,98.72v86.33a12.38,12.38,0,0,1-12.38,12.38h0a12.38,12.38,0,0,1-12.38-12.38v-1.77a41.37,41.37,0,0,1-15.6,11.55,50.28,50.28,0,0,1-20.18,4.06q-22.26,0-35.06-12.38t-12.79-36.72V98.72a12.38,12.38,0,0,1,12.38-12.38h1.25a12.37,12.37,0,0,1,12.37,12.38v47.53q0,15,6.77,22.36T350.28,176q13.94,0,22.16-8.63t8.21-24.86V98.72A12.38,12.38,0,0,1,393,86.34h1.25A12.38,12.38,0,0,1,406.66,98.72Z"/><path class="cls-2" d="M576.53,86.48c7.56-1.59,14.62,4.48,14.62,12.21l-.84,5.42c-.55,1-3.4,5.11-5.2,5.11q-15.18,0-23.71,8.85t-8.53,25.48v41.5a12.38,12.38,0,0,1-12.38,12.38h-1.25a12.38,12.38,0,0,1-12.38-12.38V98.72a12.38,12.38,0,0,1,12.38-12.38h0a12.38,12.38,0,0,1,12.38,12.38v3.85Q559.67,90,576.53,86.48Z"/><path class="cls-1" d="M488.62,86.48c7.56-1.59,14.62,4.48,14.62,12.21l-.84,5.42c-.54,1-3.39,5.11-5.19,5.11q-15.19,0-23.72,8.85T465,143.55v41.5a12.37,12.37,0,0,1-12.37,12.38h-1.25A12.38,12.38,0,0,1,439,185.05V98.72a12.38,12.38,0,0,1,12.38-12.38h0a12.38,12.38,0,0,1,12.38,12.38v3.85Q471.78,90,488.62,86.48Z"/><path class="cls-2" d="M614.45,63.56a14.61,14.61,0,0,1-4.79-11.13,14.61,14.61,0,0,1,4.79-11.13,16.71,16.71,0,0,1,11.86-4.47A17.11,17.11,0,0,1,638.5,41.4,14.12,14.12,0,0,1,643,52a15.65,15.65,0,0,1-4.68,11.39,16.2,16.2,0,0,1-12,4.68A16.71,16.71,0,0,1,614.45,63.56ZM626.2,86.34h0a13,13,0,0,1,13,13v85.09a13,13,0,0,1-13,13h0a13,13,0,0,1-13-13V99.34A13,13,0,0,1,626.2,86.34Z"/><path class="cls-2" d="M782.13,56.07V185a12.49,12.49,0,0,1-12.49,12.48h0A12.48,12.48,0,0,1,757.16,185v-1.87a40.19,40.19,0,0,1-15.92,11.85,53.83,53.83,0,0,1-20.9,4,58.52,58.52,0,0,1-28.82-7.08,50.78,50.78,0,0,1-20.07-20.07q-7.29-13-7.28-29.86t7.28-29.75a51,51,0,0,1,20.07-20,58.63,58.63,0,0,1,28.82-7.07,52.78,52.78,0,0,1,20.18,3.75,40.45,40.45,0,0,1,15.6,11.23v-44a13,13,0,0,1,13-13h0A13,13,0,0,1,782.13,56.07ZM740.31,172.36a30.81,30.81,0,0,0,11.86-12.17,37.26,37.26,0,0,0,4.37-18.31,37.24,37.24,0,0,0-4.37-18.3,30.74,30.74,0,0,0-11.86-12.17,35.38,35.38,0,0,0-33.7,0,30.68,30.68,0,0,0-11.86,12.17,37.24,37.24,0,0,0-4.37,18.3,37.26,37.26,0,0,0,4.37,18.31,30.74,30.74,0,0,0,11.86,12.17,35.45,35.45,0,0,0,33.7,0Z"/><path class="cls-2" d="M906.12,172.78h0a11,11,0,0,1-1.88,16.15,48.19,48.19,0,0,1-10,5.38,68.91,68.91,0,0,1-25.79,4.58q-18.32,0-32.25-7.29a52.39,52.39,0,0,1-21.53-20.28,57.21,57.21,0,0,1-7.59-29.44,58.19,58.19,0,0,1,7.38-29.23,52.64,52.64,0,0,1,20.39-20.28,59.23,59.23,0,0,1,29.44-7.28,59.89,59.89,0,0,1,28.39,6.76A50.89,50.89,0,0,1,913,111.2h0a22.73,22.73,0,0,1-15.21,33.87l-62.39,12.21a29,29,0,0,0,12.69,14.56q8.73,5,21,5a42.07,42.07,0,0,0,23-6.32A10.85,10.85,0,0,1,906.12,172.78Zm-65-57.52q-8.85,9.34-8.84,25.17v.2l47.33-9.09a10.92,10.92,0,0,0,4.57-19.41h0q-8.22-6.24-19.86-6.23Q849.95,105.9,841.1,115.26Z"/><path class="cls-2" d="M994.82,86.54a12.39,12.39,0,0,1,14.89,12.15v11.16a32.72,32.72,0,0,0-6-.63q-15.2,0-23.72,8.85t-8.53,25.48v41.5a12.37,12.37,0,0,1-12.37,12.38h-1.25a12.38,12.38,0,0,1-12.38-12.38V98.72a12.38,12.38,0,0,1,12.38-12.38h0a12.38,12.38,0,0,1,12.38,12.38v3.85Q978.19,90.12,994.82,86.54Z"/><path class="cls-1" d="M131.9,88.65a13,13,0,0,0-18.43,0L76.73,125.39,40,88.65a13,13,0,0,0-18.43,18.43l41.84,41.85v36.88a13.08,13.08,0,0,0,13.07,13.08h0a13,13,0,0,0,13-13V149.51l42.43-42.43A13,13,0,0,0,131.9,88.65Z"/></g></svg>