<svg xmlns="http://www.w3.org/2000/svg" viewBox="0 0 1030 960"><defs><style>.cls-1,.cls-2{fill:#fff;}.cls-1{opacity:0.67;}</style></defs><g id="Artwork"><polygon class="cls-1" points="829.07 408 829.07 571.42 692.71 707.78 529.28 707.78 829.07 408"/><polygon class="cls-2" points="829.07 77.64 481.58 425.13 198.93 142.49 198.93 305.91 399.87 506.85 198.93 707.78 362.35 707.78 481.58 588.56 482.41 589.39 564.12 507.68 563.29 506.85 829.07 241.06 829.07 77.64"/><path class="cls-2" d="M189.57,895.9a52.24,52.24,0,0,1-20.8-20,56.33,56.33,0,0,1-7.49-29,55.75,55.75,0,0,1,7.49-28.9,52.56,52.56,0,0,1,20.8-19.89,66.49,66.49,0,0,1,60.07,0A52.69,52.69,0,0,1,270.44,818a55.84,55.84,0,0,1,7.48,28.9,56.42,56.42,0,0,1-7.48,29,52.36,52.36,0,0,1-20.8,20,66.41,66.41,0,0,1-60.07,0Zm53.3-24.18q9.23-9.44,9.22-24.81t-9.22-24.8q-9.23-9.43-23.37-9.43t-23.26,9.43q-9.13,9.43-9.13,24.8t9.13,24.81q9.1,9.42,23.26,9.42T242.87,871.72Z"/><path class="cls-2" d="M408.5,804.38v85.07a12.2,12.2,0,0,1-12.2,12.19h0a12.2,12.2,0,0,1-12.2-12.19V887.7a40.82,40.82,0,0,1-15.37,11.38,49.55,49.55,0,0,1-19.88,4q-21.94,0-34.55-12.2T301.7,854.7V804.38a12.2,12.2,0,0,1,12.19-12.2h1.23a12.2,12.2,0,0,1,12.2,12.2v46.83q0,14.76,6.66,22t19,7.28q13.74,0,21.84-8.51t8.09-24.5V804.38a12.2,12.2,0,0,1,12.2-12.2h1.23A12.2,12.2,0,0,1,408.5,804.38Z"/><path class="cls-2" d="M575.88,792.32c7.44-1.56,14.4,4.42,14.4,12l-.83,5.34c-.53,1-3.34,5-5.11,5q-15,0-23.37,8.71t-8.41,25.11v40.9a12.19,12.19,0,0,1-12.19,12.19h-1.23a12.2,12.2,0,0,1-12.2-12.19V804.38a12.2,12.2,0,0,1,12.2-12.2h0a12.2,12.2,0,0,1,12.19,12.2v3.79Q559.28,795.81,575.88,792.32Z"/><path class="cls-2" d="M489.26,792.32c7.45-1.56,14.4,4.42,14.4,12l-.82,5.34c-.54,1-3.35,5-5.12,5q-15,0-23.37,8.71T466,848.55v40.9a12.2,12.2,0,0,1-12.2,12.19h-1.23a12.2,12.2,0,0,1-12.2-12.19V804.38a12.2,12.2,0,0,1,12.2-12.2h0a12.2,12.2,0,0,1,12.2,12.2v3.79Q472.66,795.81,489.26,792.32Z"/><path class="cls-2" d="M613.24,769.73a15.12,15.12,0,0,1,0-21.93,16.45,16.45,0,0,1,11.69-4.41,16.88,16.88,0,0,1,12,4.51,13.87,13.87,0,0,1,4.38,10.4,15.39,15.39,0,0,1-4.61,11.22,15.93,15.93,0,0,1-11.78,4.62A16.45,16.45,0,0,1,613.24,769.73Zm11.58,22.45h0A12.8,12.8,0,0,1,637.63,805v83.84a12.8,12.8,0,0,1-12.81,12.81h0A12.81,12.81,0,0,1,612,888.83V805A12.81,12.81,0,0,1,624.82,792.18Z"/><path class="cls-2" d="M778.46,762.35v127a12.3,12.3,0,0,1-12.3,12.3h0a12.3,12.3,0,0,1-12.3-12.3V887.5a39.61,39.61,0,0,1-15.68,11.68,53.1,53.1,0,0,1-20.6,3.9,57.72,57.72,0,0,1-28.39-7,50.1,50.1,0,0,1-19.79-19.79q-7.17-12.8-7.17-29.41t7.17-29.31a50.34,50.34,0,0,1,19.79-19.68,57.61,57.61,0,0,1,28.39-7,52,52,0,0,1,19.88,3.69,40.06,40.06,0,0,1,15.38,11.07V762.35a12.81,12.81,0,0,1,12.81-12.81h0A12.82,12.82,0,0,1,778.46,762.35ZM737.25,876.94a30.32,30.32,0,0,0,11.69-12,39.91,39.91,0,0,0,0-36.08,30.32,30.32,0,0,0-11.69-12,34.9,34.9,0,0,0-33.2,0,30.39,30.39,0,0,0-11.69,12,40,40,0,0,0,0,36.08,30.39,30.39,0,0,0,11.69,12,34.9,34.9,0,0,0,33.2,0Z"/><path class="cls-2" d="M900.63,877.35h0a10.87,10.87,0,0,1-1.84,15.92,48.22,48.22,0,0,1-9.84,5.3,68.09,68.09,0,0,1-25.42,4.51q-18,0-31.77-7.18a51.58,51.58,0,0,1-21.22-20,56.42,56.42,0,0,1-7.48-29,57.28,57.28,0,0,1,7.27-28.8,51.88,51.88,0,0,1,20.09-20,58.37,58.37,0,0,1,29-7.17,59,59,0,0,1,28,6.66,50.1,50.1,0,0,1,20,19.06h0a22.4,22.4,0,0,1-15,33.38l-61.47,12a28.66,28.66,0,0,0,12.51,14.35q8.61,4.92,20.7,4.91a41.42,41.42,0,0,0,22.71-6.22A10.68,10.68,0,0,1,900.63,877.35Zm-64.06-56.68q-8.72,9.23-8.71,24.8v.21l46.64-9A10.76,10.76,0,0,0,879,817.6h0q-8.1-6.15-19.57-6.15Q845.29,811.45,836.57,820.67Z"/><path class="cls-2" d="M988,792.38a12.21,12.21,0,0,1,14.67,12v11a32.53,32.53,0,0,0-5.94-.61q-15,0-23.37,8.71T965,848.55v40.9a12.19,12.19,0,0,1-12.19,12.19h-1.23a12.2,12.2,0,0,1-12.2-12.19V804.38a12.2,12.2,0,0,1,12.2-12.2h0a12.2,12.2,0,0,1,12.19,12.2v3.79Q971.65,795.92,988,792.38Z"/><path class="cls-2" d="M137.77,794.46a12.85,12.85,0,0,0-18.16,0l-36.2,36.2-36.2-36.2a12.84,12.84,0,1,0-18.16,18.16l41.23,41.23v36.34a12.89,12.89,0,0,0,12.88,12.89h0A12.8,12.8,0,0,0,96,890.28V854.43l41.81-41.81A12.85,12.85,0,0,0,137.77,794.46Z"/></g></svg>