<svg xmlns="http://www.w3.org/2000/svg" viewBox="0 0 1320 370"><defs><style>.cls-1,.cls-2{fill:#fff;}.cls-2{opacity:0.67;}</style></defs><g id="Artwork"><polygon class="cls-1" points="217.68 134.2 69.56 282.33 17.69 282.33 217.68 82.34 217.68 134.2"/><polygon class="cls-2" points="217.68 187.18 217.68 239.05 174.41 282.33 122.54 282.33 217.68 187.18"/><polygon class="cls-1" points="17.69 102.92 133.6 218.82 107.66 244.75 17.69 154.78 17.69 102.92"/><path class="cls-1" d="M429.41,246.25a56.25,56.25,0,0,1-22.36-21.48,60.67,60.67,0,0,1-8-31.18q0-17.4,8-31.06a56.53,56.53,0,0,1,22.36-21.37,66.77,66.77,0,0,1,32.17-7.71q18.06,0,32.39,7.71a56.59,56.59,0,0,1,22.36,21.37,60.15,60.15,0,0,1,8,31.06,60.77,60.77,0,0,1-8,31.18A56.31,56.31,0,0,1,494,246.25Q479.65,254,461.58,254A66.77,66.77,0,0,1,429.41,246.25Zm57.29-26q9.92-10.12,9.91-26.66t-9.91-26.65q-9.92-10.14-25.12-10.14t-25,10.14q-9.81,10.14-9.8,26.65t9.8,26.66q9.81,10.14,25,10.14T486.7,220.25Z"/><path class="cls-1" d="M664.71,147.88v91.43a13.11,13.11,0,0,1-13.11,13.11h0a13.11,13.11,0,0,1-13.11-13.11v-1.88A43.81,43.81,0,0,1,622,249.66a53.23,53.23,0,0,1-21.37,4.3q-23.58,0-37.12-13.11T549.92,202V147.88A13.11,13.11,0,0,1,563,134.77h1.32a13.11,13.11,0,0,1,13.11,13.11v50.34q0,15.85,7.16,23.68T605,229.72q14.76,0,23.46-9.13t8.71-26.34V147.88a13.11,13.11,0,0,1,13.1-13.11h1.33A13.11,13.11,0,0,1,664.71,147.88Z"/><path class="cls-1" d="M844.6,134.92c8-1.68,15.48,4.75,15.48,12.93l-.89,5.74c-.58,1.12-3.59,5.42-5.5,5.42q-16.08,0-25.11,9.36t-9,27v43.95a13.11,13.11,0,0,1-13.1,13.11h-1.33A13.11,13.11,0,0,1,792,239.31V147.88a13.11,13.11,0,0,1,13.11-13.11h0a13.11,13.11,0,0,1,13.11,13.11V152Q826.75,138.67,844.6,134.92Z"/><path class="cls-1" d="M751.51,134.92c8-1.68,15.48,4.75,15.48,12.93l-.89,5.74c-.58,1.12-3.59,5.42-5.5,5.42q-16.08,0-25.11,9.36t-9,27v43.95a13.11,13.11,0,0,1-13.11,13.11H712a13.11,13.11,0,0,1-13.11-13.11V147.88A13.11,13.11,0,0,1,712,134.77h0a13.11,13.11,0,0,1,13.11,13.11V152Q733.67,138.67,751.51,134.92Z"/><path class="cls-1" d="M884.76,110.65a16.24,16.24,0,0,1,0-23.58,17.67,17.67,0,0,1,12.56-4.73,18.12,18.12,0,0,1,12.91,4.84,15,15,0,0,1,4.71,11.18,16.56,16.56,0,0,1-5,12.06,17.11,17.11,0,0,1-12.66,5A17.67,17.67,0,0,1,884.76,110.65Zm12.45,24.12h0A13.78,13.78,0,0,1,911,148.54v90.11a13.78,13.78,0,0,1-13.77,13.77h0a13.77,13.77,0,0,1-13.77-13.77V148.54A13.77,13.77,0,0,1,897.21,134.77Z"/><path class="cls-1" d="M1062.33,102.71V239.2a13.22,13.22,0,0,1-13.22,13.22h0a13.22,13.22,0,0,1-13.22-13.22v-2A42.49,42.49,0,0,1,1019,249.77,57,57,0,0,1,996.9,254a62,62,0,0,1-30.52-7.49,53.81,53.81,0,0,1-21.26-21.26q-7.71-13.77-7.71-31.62t7.71-31.5a54,54,0,0,1,21.26-21.15,62,62,0,0,1,30.52-7.49,55.76,55.76,0,0,1,21.36,4,42.92,42.92,0,0,1,16.53,11.89v-46.6a13.78,13.78,0,0,1,13.77-13.77h0A13.78,13.78,0,0,1,1062.33,102.71ZM1018,225.87A32.54,32.54,0,0,0,1030.6,213a42.9,42.9,0,0,0,0-38.77A32.54,32.54,0,0,0,1018,161.32a37.49,37.49,0,0,0-35.69,0,32.58,32.58,0,0,0-12.55,12.89,42.9,42.9,0,0,0,0,38.77,32.58,32.58,0,0,0,12.55,12.89,37.49,37.49,0,0,0,35.69,0Z"/><path class="cls-1" d="M1193.64,226.31h0a11.69,11.69,0,0,1-2,17.11,51.11,51.11,0,0,1-10.57,5.69,73.08,73.08,0,0,1-27.32,4.85q-19.4,0-34.15-7.71a55.61,55.61,0,0,1-22.81-21.48,60.67,60.67,0,0,1-8-31.18,61.6,61.6,0,0,1,7.82-31,55.71,55.71,0,0,1,21.59-21.48,62.73,62.73,0,0,1,31.18-7.71,63.37,63.37,0,0,1,30.07,7.16,53.78,53.78,0,0,1,21.48,20.49h0A24.07,24.07,0,0,1,1184.79,197l-66.06,12.93a30.74,30.74,0,0,0,13.44,15.42q9.24,5.28,22.25,5.28a44.51,44.51,0,0,0,24.4-6.69A11.49,11.49,0,0,1,1193.64,226.31Zm-68.86-60.92q-9.36,9.92-9.36,26.66v.22l50.12-9.63a11.57,11.57,0,0,0,4.85-20.55h0q-8.72-6.61-21-6.61Q1134.16,155.48,1124.78,165.39Z"/><path class="cls-1" d="M1287.58,135a13.12,13.12,0,0,1,15.77,12.86v11.82A34.23,34.23,0,0,0,1297,159q-16.1,0-25.12,9.36t-9,27v43.95a13.11,13.11,0,0,1-13.11,13.11h-1.32a13.11,13.11,0,0,1-13.11-13.11V147.88a13.11,13.11,0,0,1,13.11-13.11h0a13.11,13.11,0,0,1,13.11,13.11V152Q1270,138.77,1287.58,135Z"/><path class="cls-1" d="M373.73,137.22a13.79,13.79,0,0,0-19.51,0l-38.91,38.91-38.9-38.91a13.8,13.8,0,1,0-19.52,19.52l44.31,44.31v39.06A13.85,13.85,0,0,0,315,254h0A13.76,13.76,0,0,0,328.8,240.2V201.67l44.93-44.93A13.8,13.8,0,0,0,373.73,137.22Z"/></g></svg>