<svg xmlns="http://www.w3.org/2000/svg" viewBox="0 0 1030 960"><defs><style>.cls-1{fill:#2f54a5;}.cls-2,.cls-3{fill:#83addc;}.cls-2{opacity:0.67;}</style></defs><g id="Artwork"><polygon class="cls-1" points="830.07 224.43 363.35 691.14 199.93 691.14 830.07 61.01 830.07 224.43"/><polygon class="cls-2" points="830.07 391.36 830.07 554.78 693.71 691.14 530.28 691.14 830.07 391.36"/><polygon class="cls-1" points="199.93 125.85 565.12 491.04 483.41 572.75 199.93 289.27 199.93 125.85"/><path class="cls-1" d="M190.57,879.27a52.33,52.33,0,0,1-20.8-20,59.71,59.71,0,0,1,0-57.91,52.47,52.47,0,0,1,20.8-19.88,66.41,66.41,0,0,1,60.07,0,52.6,52.6,0,0,1,20.8,19.88,59.78,59.78,0,0,1,0,57.91,52.46,52.46,0,0,1-20.8,20,66.49,66.49,0,0,1-60.07,0Zm53.3-24.19q9.23-9.44,9.22-24.81t-9.22-24.8Q234.65,796,220.5,796t-23.26,9.43q-9.13,9.43-9.13,24.8t9.13,24.81q9.1,9.42,23.26,9.42T243.87,855.08Z"/><path class="cls-1" d="M409.5,787.74v85.07A12.2,12.2,0,0,1,397.3,885h0a12.2,12.2,0,0,1-12.2-12.2v-1.75a40.61,40.61,0,0,1-15.37,11.38,49.55,49.55,0,0,1-19.88,4q-21.94,0-34.55-12.2t-12.6-36.18V787.74a12.2,12.2,0,0,1,12.19-12.2h1.23a12.2,12.2,0,0,1,12.2,12.2v46.84q0,14.76,6.66,22t19,7.28q13.74,0,21.84-8.5t8.09-24.5V787.74a12.2,12.2,0,0,1,12.2-12.2h1.23A12.2,12.2,0,0,1,409.5,787.74Z"/><path class="cls-3" d="M576.88,775.68c7.44-1.56,14.4,4.42,14.4,12l-.83,5.34c-.53,1-3.34,5-5.11,5q-15,0-23.37,8.71t-8.41,25.11v40.9A12.2,12.2,0,0,1,541.37,885h-1.23a12.2,12.2,0,0,1-12.2-12.2V787.74a12.2,12.2,0,0,1,12.2-12.2h0a12.2,12.2,0,0,1,12.19,12.2v3.79Q560.28,779.17,576.88,775.68Z"/><path class="cls-1" d="M490.26,775.68c7.45-1.56,14.4,4.42,14.4,12l-.82,5.34c-.54,1-3.35,5-5.12,5q-15,0-23.37,8.71T467,831.91v40.9a12.2,12.2,0,0,1-12.2,12.2h-1.23a12.2,12.2,0,0,1-12.2-12.2V787.74a12.2,12.2,0,0,1,12.2-12.2h0a12.2,12.2,0,0,1,12.2,12.2v3.79Q473.66,779.17,490.26,775.68Z"/><path class="cls-3" d="M614.24,753.1a15.13,15.13,0,0,1,0-21.94,16.45,16.45,0,0,1,11.69-4.4,16.87,16.87,0,0,1,12,4.5,13.91,13.91,0,0,1,4.38,10.41,15.41,15.41,0,0,1-4.61,11.22,16,16,0,0,1-11.78,4.61A16.45,16.45,0,0,1,614.24,753.1Zm11.58,22.44h0a12.81,12.81,0,0,1,12.81,12.81v83.84A12.81,12.81,0,0,1,625.82,885h0A12.82,12.82,0,0,1,613,872.19V788.35A12.82,12.82,0,0,1,625.82,775.54Z"/><path class="cls-3" d="M779.46,745.71v127a12.3,12.3,0,0,1-12.3,12.3h0a12.3,12.3,0,0,1-12.3-12.3v-1.85a39.51,39.51,0,0,1-15.68,11.68,52.91,52.91,0,0,1-20.6,3.9,57.61,57.61,0,0,1-28.39-7,50.07,50.07,0,0,1-19.79-19.78q-7.17-12.81-7.17-29.42T670.4,801a50.34,50.34,0,0,1,19.79-19.68,57.61,57.61,0,0,1,28.39-7A52,52,0,0,1,738.46,778a40.06,40.06,0,0,1,15.38,11.07V745.71a12.81,12.81,0,0,1,12.81-12.81h0A12.82,12.82,0,0,1,779.46,745.71ZM738.25,860.3a30.26,30.26,0,0,0,11.69-12,39.89,39.89,0,0,0,0-36.07,30.26,30.26,0,0,0-11.69-12,34.83,34.83,0,0,0-33.2,0,30.32,30.32,0,0,0-11.69,12,40,40,0,0,0,0,36.07,30.32,30.32,0,0,0,11.69,12,34.9,34.9,0,0,0,33.2,0Z"/><path class="cls-3" d="M901.63,860.72h0a10.86,10.86,0,0,1-1.84,15.91,47.74,47.74,0,0,1-9.84,5.3,68.09,68.09,0,0,1-25.42,4.51q-18,0-31.77-7.17a51.67,51.67,0,0,1-21.22-20,56.42,56.42,0,0,1-7.48-29,57.28,57.28,0,0,1,7.27-28.8,51.78,51.78,0,0,1,20.09-20,58.37,58.37,0,0,1,29-7.18,59.09,59.09,0,0,1,28,6.66,50.06,50.06,0,0,1,20,19.07h0a22.4,22.4,0,0,1-15,33.38l-61.47,12a28.62,28.62,0,0,0,12.51,14.35q8.61,4.92,20.7,4.92a41.43,41.43,0,0,0,22.71-6.23A10.68,10.68,0,0,1,901.63,860.72ZM837.57,804q-8.72,9.21-8.71,24.8v.2l46.64-8.95A10.77,10.77,0,0,0,880,801h0q-8.1-6.15-19.57-6.15Q846.29,794.81,837.57,804Z"/><path class="cls-3" d="M989,775.74a12.21,12.21,0,0,1,14.67,12v11a31.74,31.74,0,0,0-5.94-.62q-15,0-23.37,8.71T966,831.91v40.9A12.2,12.2,0,0,1,953.8,885h-1.23a12.2,12.2,0,0,1-12.2-12.2V787.74a12.2,12.2,0,0,1,12.2-12.2h0a12.2,12.2,0,0,1,12.19,12.2v3.79Q972.65,779.28,989,775.74Z"/><path class="cls-1" d="M138.77,777.82a12.85,12.85,0,0,0-18.16,0L84.41,814l-36.2-36.2A12.84,12.84,0,0,0,30.05,796l41.23,41.23v36.35a12.88,12.88,0,0,0,12.88,12.88h0A12.8,12.8,0,0,0,97,873.64V837.79L138.77,796A12.85,12.85,0,0,0,138.77,777.82Z"/><polygon class="cls-3" points="830.07 391.34 830.07 557.18 696.11 691.14 530.3 691.14 830.07 391.34"/></g></svg>