<svg xmlns="http://www.w3.org/2000/svg" viewBox="0 0 1030 960"><defs><style>.cls-1,.cls-3{fill:#6b6b6b;}.cls-1{opacity:0.67;}.cls-2{fill:#40403f;}</style></defs><g id="Artwork"><polygon class="cls-1" points="830.07 397.64 830.07 561.06 693.71 697.42 530.28 697.42 830.07 397.64"/><polygon class="cls-2" points="830.07 67.28 482.58 414.77 199.93 132.13 199.93 295.55 400.87 496.49 199.93 697.42 363.35 697.42 482.58 578.2 483.41 579.03 565.12 497.32 564.29 496.49 830.07 230.71 830.07 67.28"/><path class="cls-2" d="M190.57,885.54a52.24,52.24,0,0,1-20.8-20,56.33,56.33,0,0,1-7.49-29,55.75,55.75,0,0,1,7.49-28.9,52.56,52.56,0,0,1,20.8-19.89,66.49,66.49,0,0,1,60.07,0,52.69,52.69,0,0,1,20.8,19.89,55.84,55.84,0,0,1,7.48,28.9,56.42,56.42,0,0,1-7.48,29,52.36,52.36,0,0,1-20.8,20,66.41,66.41,0,0,1-60.07,0Zm53.3-24.18q9.23-9.43,9.22-24.81t-9.22-24.8q-9.23-9.43-23.37-9.43t-23.26,9.43q-9.13,9.43-9.13,24.8t9.13,24.81q9.1,9.42,23.26,9.42T243.87,861.36Z"/><path class="cls-2" d="M409.5,794v85.07a12.2,12.2,0,0,1-12.2,12.19h0a12.2,12.2,0,0,1-12.2-12.19v-1.75a40.82,40.82,0,0,1-15.37,11.38,49.55,49.55,0,0,1-19.88,4q-21.94,0-34.55-12.2t-12.6-36.18V794a12.2,12.2,0,0,1,12.19-12.2h1.23a12.2,12.2,0,0,1,12.2,12.2v46.84q0,14.75,6.66,22t19,7.28q13.74,0,21.84-8.51t8.09-24.5V794a12.2,12.2,0,0,1,12.2-12.2h1.23A12.2,12.2,0,0,1,409.5,794Z"/><path class="cls-3" d="M576.88,782c7.44-1.56,14.4,4.42,14.4,12l-.83,5.34c-.53,1-3.34,5-5.11,5q-15,0-23.37,8.71t-8.41,25.11v40.9a12.19,12.19,0,0,1-12.19,12.19h-1.23a12.2,12.2,0,0,1-12.2-12.19V794a12.2,12.2,0,0,1,12.2-12.2h0A12.2,12.2,0,0,1,552.33,794v3.79Q560.28,785.45,576.88,782Z"/><path class="cls-2" d="M490.26,782c7.45-1.56,14.4,4.42,14.4,12l-.82,5.34c-.54,1-3.35,5-5.12,5q-15,0-23.37,8.71T467,838.19v40.9a12.2,12.2,0,0,1-12.2,12.19h-1.23a12.2,12.2,0,0,1-12.2-12.19V794a12.2,12.2,0,0,1,12.2-12.2h0a12.2,12.2,0,0,1,12.2,12.2v3.79Q473.66,785.45,490.26,782Z"/><path class="cls-3" d="M614.24,759.37a15.12,15.12,0,0,1,0-21.93A16.45,16.45,0,0,1,625.93,733a16.88,16.88,0,0,1,12,4.51,13.89,13.89,0,0,1,4.38,10.4,15.38,15.38,0,0,1-4.61,11.22,15.93,15.93,0,0,1-11.78,4.62A16.45,16.45,0,0,1,614.24,759.37Zm11.58,22.45h0a12.81,12.81,0,0,1,12.81,12.81v83.84a12.8,12.8,0,0,1-12.81,12.81h0A12.81,12.81,0,0,1,613,878.47V794.63A12.82,12.82,0,0,1,625.82,781.82Z"/><path class="cls-3" d="M779.46,752V879a12.3,12.3,0,0,1-12.3,12.3h0a12.3,12.3,0,0,1-12.3-12.3v-1.84a39.51,39.51,0,0,1-15.68,11.68,53.1,53.1,0,0,1-20.6,3.9,57.72,57.72,0,0,1-28.39-7A50.1,50.1,0,0,1,670.4,866q-7.17-12.8-7.17-29.41t7.17-29.31a50.34,50.34,0,0,1,19.79-19.68,57.61,57.61,0,0,1,28.39-7,52,52,0,0,1,19.88,3.69,40.06,40.06,0,0,1,15.38,11.07V752a12.81,12.81,0,0,1,12.81-12.81h0A12.82,12.82,0,0,1,779.46,752ZM738.25,866.58a30.26,30.26,0,0,0,11.69-12,39.91,39.91,0,0,0,0-36.08,30.32,30.32,0,0,0-11.69-12,34.9,34.9,0,0,0-33.2,0,30.39,30.39,0,0,0-11.69,12,40,40,0,0,0,0,36.08,30.32,30.32,0,0,0,11.69,12,34.9,34.9,0,0,0,33.2,0Z"/><path class="cls-3" d="M901.63,867h0a10.87,10.87,0,0,1-1.84,15.92,47.74,47.74,0,0,1-9.84,5.3,68.09,68.09,0,0,1-25.42,4.51q-18,0-31.77-7.18a51.58,51.58,0,0,1-21.22-20,56.42,56.42,0,0,1-7.48-29,57.28,57.28,0,0,1,7.27-28.8,51.88,51.88,0,0,1,20.09-20,58.37,58.37,0,0,1,29-7.17,59,59,0,0,1,28,6.66,50.1,50.1,0,0,1,20,19.06h0a22.4,22.4,0,0,1-15,33.38l-61.47,12a28.62,28.62,0,0,0,12.51,14.35q8.61,4.92,20.7,4.92a41.43,41.43,0,0,0,22.71-6.23A10.68,10.68,0,0,1,901.63,867Zm-64.06-56.68q-8.72,9.23-8.71,24.8v.21l46.64-9a10.76,10.76,0,0,0,4.5-19.12h0q-8.1-6.15-19.57-6.15Q846.29,801.09,837.57,810.31Z"/><path class="cls-3" d="M989,782a12.21,12.21,0,0,1,14.67,12v11a32.53,32.53,0,0,0-5.94-.61q-15,0-23.37,8.71T966,838.19v40.9a12.19,12.19,0,0,1-12.19,12.19h-1.23a12.2,12.2,0,0,1-12.2-12.19V794a12.2,12.2,0,0,1,12.2-12.2h0A12.2,12.2,0,0,1,964.76,794v3.79Q972.65,785.56,989,782Z"/><path class="cls-2" d="M138.77,784.1a12.85,12.85,0,0,0-18.16,0l-36.2,36.2-36.2-36.2a12.84,12.84,0,0,0-18.16,18.16l41.23,41.23v36.35a12.88,12.88,0,0,0,12.88,12.88h0A12.8,12.8,0,0,0,97,879.92V844.07l41.81-41.81A12.85,12.85,0,0,0,138.77,784.1Z"/></g></svg>