<svg xmlns="http://www.w3.org/2000/svg" viewBox="0 0 1320 370"><defs><style>.cls-1,.cls-2{opacity:0.67;}.cls-2,.cls-4{fill:#6b6b6b;}.cls-3{fill:#40403f;}</style></defs><g id="Artwork"><g class="cls-1"><polygon class="cls-2" points="217.68 183.59 217.68 235.46 174.41 278.73 122.54 278.73 217.68 183.59"/></g><polygon class="cls-3" points="217.68 130.61 69.56 278.73 17.69 278.73 217.68 78.74 217.68 130.61"/><polygon class="cls-3" points="17.69 99.32 133.6 215.23 107.66 241.16 17.69 151.19 17.69 99.32"/><path class="cls-3" d="M429.41,242.65a56.23,56.23,0,0,1-22.36-21.47A60.73,60.73,0,0,1,399,190q0-17.42,8-31.06a56.55,56.55,0,0,1,22.36-21.38,66.89,66.89,0,0,1,32.17-7.71q18.06,0,32.39,7.71a56.62,56.62,0,0,1,22.36,21.38,60.13,60.13,0,0,1,8,31.06,60.82,60.82,0,0,1-8,31.18A56.29,56.29,0,0,1,494,242.65q-14.33,7.72-32.39,7.71A66.66,66.66,0,0,1,429.41,242.65Zm57.29-26q9.92-10.12,9.91-26.66t-9.91-26.66q-9.92-10.12-25.12-10.13t-25,10.13q-9.81,10.14-9.8,26.66t9.8,26.66q9.81,10.13,25,10.13T486.7,216.66Z"/><path class="cls-3" d="M664.71,144.28v91.44a13.11,13.11,0,0,1-13.11,13.1h0a13.11,13.11,0,0,1-13.11-13.1v-1.88A43.92,43.92,0,0,1,622,246.07a53.22,53.22,0,0,1-21.37,4.29q-23.58,0-37.12-13.1t-13.55-38.89V144.28A13.1,13.1,0,0,1,563,131.18h1.32a13.1,13.1,0,0,1,13.11,13.1v50.35q0,15.85,7.16,23.68T605,226.13q14.76,0,23.46-9.14t8.71-26.33V144.28a13.1,13.1,0,0,1,13.1-13.1h1.33A13.1,13.1,0,0,1,664.71,144.28Z"/><path class="cls-4" d="M844.6,131.33c8-1.68,15.48,4.74,15.48,12.92l-.89,5.75c-.58,1.11-3.59,5.41-5.5,5.41q-16.08,0-25.11,9.36t-9,27v44a13.11,13.11,0,0,1-13.1,13.1h-1.33A13.11,13.11,0,0,1,792,235.72V144.28a13.1,13.1,0,0,1,13.11-13.1h0a13.1,13.1,0,0,1,13.11,13.1v4.08Q826.75,135.08,844.6,131.33Z"/><path class="cls-3" d="M751.51,131.33c8-1.68,15.48,4.74,15.48,12.92L766.1,150c-.58,1.11-3.59,5.41-5.5,5.41q-16.08,0-25.11,9.36t-9,27v44a13.11,13.11,0,0,1-13.11,13.1H712a13.11,13.11,0,0,1-13.11-13.1V144.28A13.1,13.1,0,0,1,712,131.18h0a13.1,13.1,0,0,1,13.11,13.1v4.08Q733.67,135.08,751.51,131.33Z"/><path class="cls-4" d="M884.76,107.05a16.23,16.23,0,0,1,0-23.57,17.68,17.68,0,0,1,12.56-4.74,18.12,18.12,0,0,1,12.91,4.85,14.94,14.94,0,0,1,4.71,11.18,16.58,16.58,0,0,1-5,12.06,17.15,17.15,0,0,1-12.66,5A17.68,17.68,0,0,1,884.76,107.05Zm12.45,24.13h0A13.77,13.77,0,0,1,911,144.94v90.11a13.77,13.77,0,0,1-13.77,13.77h0a13.76,13.76,0,0,1-13.77-13.77V144.94A13.76,13.76,0,0,1,897.21,131.18Z"/><path class="cls-4" d="M1062.33,99.12V235.6a13.22,13.22,0,0,1-13.22,13.22h0a13.22,13.22,0,0,1-13.22-13.22v-2A42.51,42.51,0,0,1,1019,246.18a57.15,57.15,0,0,1-22.14,4.18,61.92,61.92,0,0,1-30.52-7.49,53.81,53.81,0,0,1-21.26-21.26q-7.71-13.76-7.71-31.61t7.71-31.51a54,54,0,0,1,21.26-21.14,61.92,61.92,0,0,1,30.52-7.5,56,56,0,0,1,21.36,4,43,43,0,0,1,16.53,11.9V99.12a13.77,13.77,0,0,1,13.77-13.77h0A13.77,13.77,0,0,1,1062.33,99.12ZM1018,222.27a32.54,32.54,0,0,0,12.56-12.89,42.9,42.9,0,0,0,0-38.77A32.58,32.58,0,0,0,1018,157.73a37.49,37.49,0,0,0-35.69,0,32.62,32.62,0,0,0-12.55,12.88,42.9,42.9,0,0,0,0,38.77,32.58,32.58,0,0,0,12.55,12.89,37.49,37.49,0,0,0,35.69,0Z"/><path class="cls-4" d="M1193.64,222.72h0a11.69,11.69,0,0,1-2,17.11,51.59,51.59,0,0,1-10.57,5.69,73.08,73.08,0,0,1-27.32,4.84q-19.4,0-34.15-7.71a55.58,55.58,0,0,1-22.81-21.47,60.73,60.73,0,0,1-8-31.18,61.61,61.61,0,0,1,7.82-31,55.85,55.85,0,0,1,21.59-21.48,66.81,66.81,0,0,1,61.25-.55,53.85,53.85,0,0,1,21.48,20.49h0a24.08,24.08,0,0,1-16.11,35.88l-66.06,12.92a30.7,30.7,0,0,0,13.44,15.42q9.24,5.29,22.25,5.29a44.43,44.43,0,0,0,24.4-6.7A11.51,11.51,0,0,1,1193.64,222.72Zm-68.86-60.92q-9.36,9.91-9.36,26.66v.21l50.12-9.62a11.57,11.57,0,0,0,4.85-20.56h0q-8.72-6.6-21-6.6Q1134.16,151.89,1124.78,161.8Z"/><path class="cls-4" d="M1287.58,131.39a13.13,13.13,0,0,1,15.77,12.86v11.82a35.1,35.1,0,0,0-6.39-.66q-16.1,0-25.12,9.36t-9,27v44a13.11,13.11,0,0,1-13.11,13.1h-1.32a13.11,13.11,0,0,1-13.11-13.1V144.28a13.1,13.1,0,0,1,13.11-13.1h0a13.1,13.1,0,0,1,13.11,13.1v4.08Q1270,135.19,1287.58,131.39Z"/><path class="cls-3" d="M373.73,133.63a13.79,13.79,0,0,0-19.51,0l-38.91,38.9-38.9-38.9a13.8,13.8,0,1,0-19.52,19.52l44.31,44.31v39.06A13.84,13.84,0,0,0,315,250.36h0a13.76,13.76,0,0,0,13.75-13.75V198.08l44.93-44.93A13.8,13.8,0,0,0,373.73,133.63Z"/></g></svg>