<svg xmlns="http://www.w3.org/2000/svg" viewBox="0 0 1030 250"><defs><style>.cls-1{fill:#40403f;}.cls-2{fill:#6b6b6b;}</style></defs><g id="Artwork"><path class="cls-1" d="M184.48,194.32A53,53,0,0,1,163.36,174a57.31,57.31,0,0,1-7.59-29.44,56.73,56.73,0,0,1,7.59-29.33,53.24,53.24,0,0,1,21.12-20.18,67.43,67.43,0,0,1,61,0,53.37,53.37,0,0,1,21.12,20.18,56.73,56.73,0,0,1,7.59,29.33A57.31,57.31,0,0,1,266.55,174a53.14,53.14,0,0,1-21.12,20.28q-13.52,7.29-30.58,7.28A62.92,62.92,0,0,1,184.48,194.32Zm54.09-24.54q9.36-9.57,9.36-25.18t-9.36-25.17q-9.36-9.57-23.72-9.57t-23.61,9.57Q182,129,182,144.6t9.26,25.18q9.25,9.56,23.61,9.56T238.57,169.78Z"/><path class="cls-1" d="M406.66,101.43v86.34a12.38,12.38,0,0,1-12.38,12.38h0a12.38,12.38,0,0,1-12.38-12.38V186a41.35,41.35,0,0,1-15.6,11.54,50.11,50.11,0,0,1-20.18,4.06q-22.26,0-35.06-12.37T298.27,152.5V101.43a12.37,12.37,0,0,1,12.38-12.37h1.25a12.37,12.37,0,0,1,12.37,12.37V149q0,15,6.77,22.36t19.24,7.39q13.94,0,22.16-8.63t8.21-24.87V101.43A12.38,12.38,0,0,1,393,89.06h1.25A12.37,12.37,0,0,1,406.66,101.43Z"/><path class="cls-2" d="M576.53,89.2c7.56-1.59,14.62,4.48,14.62,12.2l-.84,5.43c-.55,1-3.4,5.11-5.2,5.11q-15.18,0-23.71,8.84t-8.53,25.49v41.5a12.38,12.38,0,0,1-12.38,12.38h-1.25a12.38,12.38,0,0,1-12.38-12.38V101.43a12.38,12.38,0,0,1,12.38-12.37h0a12.37,12.37,0,0,1,12.38,12.37v3.85Q559.67,92.74,576.53,89.2Z"/><path class="cls-1" d="M488.62,89.2c7.56-1.59,14.62,4.48,14.62,12.2l-.84,5.43c-.54,1-3.39,5.11-5.19,5.11q-15.19,0-23.72,8.84T465,146.27v41.5a12.37,12.37,0,0,1-12.37,12.38h-1.25A12.38,12.38,0,0,1,439,187.77V101.43a12.37,12.37,0,0,1,12.38-12.37h0a12.38,12.38,0,0,1,12.38,12.37v3.85Q471.78,92.74,488.62,89.2Z"/><path class="cls-2" d="M614.45,66.28a14.63,14.63,0,0,1-4.79-11.14A14.63,14.63,0,0,1,614.45,44a16.71,16.71,0,0,1,11.86-4.47,17.12,17.12,0,0,1,12.19,4.58A14.1,14.1,0,0,1,643,54.68a15.65,15.65,0,0,1-4.68,11.38,16.17,16.17,0,0,1-12,4.69A16.71,16.71,0,0,1,614.45,66.28ZM626.2,89.06h0a13,13,0,0,1,13,13v85.09a13,13,0,0,1-13,13h0a13,13,0,0,1-13-13V102.06A13,13,0,0,1,626.2,89.06Z"/><path class="cls-2" d="M782.13,58.78V187.67a12.49,12.49,0,0,1-12.49,12.48h0a12.48,12.48,0,0,1-12.48-12.48v-1.88a40.12,40.12,0,0,1-15.92,11.86,53.82,53.82,0,0,1-20.9,3.95,58.63,58.63,0,0,1-28.82-7.07,50.74,50.74,0,0,1-20.07-20.08q-7.29-13-7.28-29.85t7.28-29.75a51,51,0,0,1,20.07-20,58.52,58.52,0,0,1,28.82-7.07,53,53,0,0,1,20.18,3.74,40.58,40.58,0,0,1,15.6,11.24v-44a13,13,0,0,1,13-13h0A13,13,0,0,1,782.13,58.78Zm-41.82,116.3a30.87,30.87,0,0,0,11.86-12.17,37.26,37.26,0,0,0,4.37-18.31,37.22,37.22,0,0,0-4.37-18.3,30.74,30.74,0,0,0-11.86-12.17,35.38,35.38,0,0,0-33.7,0,30.68,30.68,0,0,0-11.86,12.17,37.22,37.22,0,0,0-4.37,18.3,37.26,37.26,0,0,0,4.37,18.31,30.81,30.81,0,0,0,11.86,12.17,35.45,35.45,0,0,0,33.7,0Z"/><path class="cls-2" d="M906.12,175.5h0a11,11,0,0,1-1.88,16.15,48.19,48.19,0,0,1-10,5.38,69.11,69.11,0,0,1-25.79,4.57q-18.32,0-32.25-7.28A52.39,52.39,0,0,1,814.68,174a57.21,57.21,0,0,1-7.59-29.44,58.16,58.16,0,0,1,7.38-29.23,52.57,52.57,0,0,1,20.39-20.28,63.08,63.08,0,0,1,57.83-.52A50.79,50.79,0,0,1,913,113.91h0a22.74,22.74,0,0,1-15.21,33.88L835.38,160a29.07,29.07,0,0,0,12.69,14.56q8.73,5,21,5a42.07,42.07,0,0,0,23-6.32A10.85,10.85,0,0,1,906.12,175.5ZM841.1,118q-8.85,9.36-8.84,25.17v.21l47.33-9.09a10.92,10.92,0,0,0,4.57-19.41h0q-8.22-6.24-19.86-6.24Q849.95,108.61,841.1,118Z"/><path class="cls-2" d="M994.82,89.26a12.39,12.39,0,0,1,14.89,12.14v11.17a32.72,32.72,0,0,0-6-.63q-15.2,0-23.72,8.84t-8.53,25.49v41.5a12.37,12.37,0,0,1-12.37,12.38h-1.25a12.38,12.38,0,0,1-12.38-12.38V101.43a12.37,12.37,0,0,1,12.38-12.37h0a12.38,12.38,0,0,1,12.38,12.37v3.85Q978.19,92.85,994.82,89.26Z"/><path class="cls-1" d="M131.9,91.37a13,13,0,0,0-18.43,0L76.73,128.11,40,91.37A13,13,0,0,0,21.57,109.8l41.84,41.84v36.89A13.07,13.07,0,0,0,76.48,201.6h0a13,13,0,0,0,13-13V152.23L131.9,109.8A13,13,0,0,0,131.9,91.37Z"/></g></svg>