<svg xmlns="http://www.w3.org/2000/svg" viewBox="0 0 1320 370"><defs><style>.cls-1{fill:#2f54a5;}.cls-2,.cls-5{fill:#83addc;}.cls-2{opacity:0.67;}.cls-3{fill:#40403f;}.cls-4{fill:#6b6b6b;}</style></defs><g id="Artwork"><polygon class="cls-1" points="217.68 136.63 69.56 284.75 17.69 284.75 217.68 84.76 217.68 136.63"/><polygon class="cls-2" points="217.68 189.61 217.68 241.47 174.41 284.75 122.54 284.75 217.68 189.61"/><polygon class="cls-1" points="17.69 105.34 133.6 221.25 107.66 247.18 17.69 157.21 17.69 105.34"/><path class="cls-3" d="M429.41,248.67a56.23,56.23,0,0,1-22.36-21.47A60.73,60.73,0,0,1,399,196q0-17.4,8-31.06a56.55,56.55,0,0,1,22.36-21.38,66.89,66.89,0,0,1,32.17-7.71q18.06,0,32.39,7.71A56.62,56.62,0,0,1,516.33,165a60.15,60.15,0,0,1,8,31.06,60.82,60.82,0,0,1-8,31.18A56.29,56.29,0,0,1,494,248.67q-14.33,7.72-32.39,7.71A66.66,66.66,0,0,1,429.41,248.67Zm57.29-26q9.92-10.12,9.91-26.66t-9.91-26.66q-9.92-10.12-25.12-10.13t-25,10.13q-9.81,10.14-9.8,26.66t9.8,26.66q9.81,10.13,25,10.13T486.7,222.68Z"/><path class="cls-3" d="M664.71,150.3v91.44a13.11,13.11,0,0,1-13.11,13.1h0a13.11,13.11,0,0,1-13.11-13.1v-1.88A43.92,43.92,0,0,1,622,252.09a53.22,53.22,0,0,1-21.37,4.29q-23.58,0-37.12-13.1t-13.55-38.89V150.3A13.1,13.1,0,0,1,563,137.2h1.32a13.1,13.1,0,0,1,13.11,13.1v50.35q0,15.85,7.16,23.68T605,232.15q14.76,0,23.46-9.14t8.71-26.33V150.3a13.1,13.1,0,0,1,13.1-13.1h1.33A13.1,13.1,0,0,1,664.71,150.3Z"/><path class="cls-4" d="M844.6,137.35c8-1.68,15.48,4.74,15.48,12.92l-.89,5.75c-.58,1.11-3.59,5.41-5.5,5.41q-16.08,0-25.11,9.37t-9,27v44a13.11,13.11,0,0,1-13.1,13.1h-1.33A13.11,13.11,0,0,1,792,241.74V150.3a13.1,13.1,0,0,1,13.11-13.1h0a13.1,13.1,0,0,1,13.11,13.1v4.08Q826.75,141.11,844.6,137.35Z"/><path class="cls-3" d="M751.51,137.35c8-1.68,15.48,4.74,15.48,12.92L766.1,156c-.58,1.11-3.59,5.41-5.5,5.41q-16.08,0-25.11,9.37t-9,27v44a13.11,13.11,0,0,1-13.11,13.1H712a13.11,13.11,0,0,1-13.11-13.1V150.3A13.1,13.1,0,0,1,712,137.2h0a13.1,13.1,0,0,1,13.11,13.1v4.08Q733.67,141.11,751.51,137.35Z"/><path class="cls-4" d="M884.76,113.07a16.23,16.23,0,0,1,0-23.57,17.68,17.68,0,0,1,12.56-4.74,18.12,18.12,0,0,1,12.91,4.85,14.94,14.94,0,0,1,4.71,11.18,16.58,16.58,0,0,1-5,12.06,17.15,17.15,0,0,1-12.66,5A17.68,17.68,0,0,1,884.76,113.07Zm12.45,24.13h0A13.77,13.77,0,0,1,911,151v90.11a13.77,13.77,0,0,1-13.77,13.77h0a13.76,13.76,0,0,1-13.77-13.77V151A13.76,13.76,0,0,1,897.21,137.2Z"/><path class="cls-4" d="M1062.33,105.14V241.62a13.22,13.22,0,0,1-13.22,13.22h0a13.22,13.22,0,0,1-13.22-13.22v-2A42.51,42.51,0,0,1,1019,252.2a57.15,57.15,0,0,1-22.14,4.18,61.92,61.92,0,0,1-30.52-7.49,53.81,53.81,0,0,1-21.26-21.26q-7.71-13.75-7.71-31.61t7.71-31.51a54,54,0,0,1,21.26-21.14,61.92,61.92,0,0,1,30.52-7.5,56,56,0,0,1,21.36,4,43,43,0,0,1,16.53,11.9v-46.6a13.77,13.77,0,0,1,13.77-13.77h0A13.77,13.77,0,0,1,1062.33,105.14ZM1018,228.29a32.54,32.54,0,0,0,12.56-12.89,42.9,42.9,0,0,0,0-38.77A32.58,32.58,0,0,0,1018,163.75a37.49,37.49,0,0,0-35.69,0,32.62,32.62,0,0,0-12.55,12.88,42.9,42.9,0,0,0,0,38.77,32.58,32.58,0,0,0,12.55,12.89,37.49,37.49,0,0,0,35.69,0Z"/><path class="cls-4" d="M1193.64,228.74h0a11.69,11.69,0,0,1-2,17.11,51.59,51.59,0,0,1-10.57,5.69,73.08,73.08,0,0,1-27.32,4.84q-19.4,0-34.15-7.71a55.58,55.58,0,0,1-22.81-21.47,60.73,60.73,0,0,1-8-31.18,61.61,61.61,0,0,1,7.82-31,55.85,55.85,0,0,1,21.59-21.48,66.81,66.81,0,0,1,61.25-.55,53.85,53.85,0,0,1,21.48,20.49h0a24.08,24.08,0,0,1-16.11,35.88l-66.06,12.92a30.7,30.7,0,0,0,13.44,15.42q9.24,5.3,22.25,5.29a44.43,44.43,0,0,0,24.4-6.7A11.51,11.51,0,0,1,1193.64,228.74Zm-68.86-60.92q-9.36,9.92-9.36,26.66v.21l50.12-9.62a11.57,11.57,0,0,0,4.85-20.56h0q-8.72-6.6-21-6.6Q1134.16,157.91,1124.78,167.82Z"/><path class="cls-4" d="M1287.58,137.41a13.13,13.13,0,0,1,15.77,12.86v11.82a35.1,35.1,0,0,0-6.39-.66q-16.1,0-25.12,9.37t-9,27v44a13.11,13.11,0,0,1-13.11,13.1h-1.32a13.11,13.11,0,0,1-13.11-13.1V150.3a13.1,13.1,0,0,1,13.11-13.1h0a13.1,13.1,0,0,1,13.11,13.1v4.08Q1270,141.21,1287.58,137.41Z"/><path class="cls-3" d="M373.73,139.65a13.79,13.79,0,0,0-19.51,0l-38.91,38.9-38.9-38.9a13.8,13.8,0,1,0-19.52,19.52l44.31,44.31v39.06A13.84,13.84,0,0,0,315,256.38h0a13.76,13.76,0,0,0,13.75-13.75V204.1l44.93-44.93A13.8,13.8,0,0,0,373.73,139.65Z"/><polygon class="cls-5" points="218.12 189.17 218.12 242.29 175.21 285.2 122.1 285.2 218.12 189.17"/></g></svg>